
<svg id="LOGOS" xmlns="http://www.w3.org/2000/svg" viewBox="0 0 297 132"><defs><style>.cls-1,.cls-2{fill:#02a8ef;}.cls-1{fill-rule:evenodd;}</style></defs><path d="M117.54,51.69h15.73c9.31,0,12.76,3.81,12.76,10.89v5.5c0,7-3.75,10.83-13.13,10.83h-7.74V92h-7.62Zm15.3,6.72h-7.68V72.2h7.68c4.3,0,5.57-1.58,5.57-4.9V63.19C138.41,59.86,137,58.41,132.84,58.41Z"/><path d="M171.79,92h-6l-.54-2a16.15,16.15,0,0,1-8.77,2.6c-5.39,0-7.68-3.69-7.68-8.77,0-6,2.6-8.29,8.58-8.29h7.08V72.44c0-3.27-.91-4.42-5.62-4.42a41.48,41.48,0,0,0-8.17.91l-.91-5.62a38.38,38.38,0,0,1,10.1-1.39c9.26,0,12,3.26,12,10.64Zm-7.38-11.12H159c-2.42,0-3.09.66-3.09,2.9,0,2,.67,3,3,3a11.57,11.57,0,0,0,5.56-1.51Z"/><path d="M176.2,81.27v-8c0-7.93,3.45-11.31,12.7-11.31A25.57,25.57,0,0,1,196.1,63l-.91,6a26.94,26.94,0,0,0-6.11-.78c-4.23,0-5.5,1.27-5.5,4.9v8.16c0,3.63,1.27,4.9,5.5,4.9a24.59,24.59,0,0,0,6.11-.79l.91,6a24.12,24.12,0,0,1-7.2,1.09C179.65,92.58,176.2,89.19,176.2,81.27Z"/><path d="M200.76,92V50.49l7.37-1V92Zm25-29.45L217.15,77.1l9,14.87h-8.11L209.16,77.1l8.41-14.58Z"/><path d="M241.15,86.53a30.72,30.72,0,0,0,9-1.39l1.15,5.56a31.56,31.56,0,0,1-10.82,1.88c-9.26,0-12.46-4.3-12.46-11.37v-7.8c0-6.23,2.78-11.49,12.22-11.49s11.55,5.5,11.55,11.85v6.29H235.41v1.51C235.41,85.14,236.68,86.53,241.15,86.53Zm-5.74-12.4h9.37V72.68c0-2.78-.84-4.72-4.47-4.72s-4.9,1.94-4.9,4.72Z"/><path d="M271.51,68.69a58.17,58.17,0,0,0-7.8,4.29V92h-7.38V62.52h6.23l.48,3.27a32.94,32.94,0,0,1,7.75-3.87Z"/><polygon class="cls-1" points="41.7 44.27 64.39 57.38 64.39 105.72 41.7 92.61 41.7 44.27"/><path class="cls-2" d="M75.62,49.92,51,35.72v9.86l16.77,9.68v29.6l7.89,4.53c4.89,2.82,8.88,1.13,8.88-3.75V63.92C84.5,59,80.51,52.74,75.62,49.92Z"/><path d="M125.36,41.8V36.15h-5.18V41.8h-2.64V28.22h2.64v5.7h5.18v-5.7H128V41.8Zm12.32,0h-2.09l-.19-.66a5.78,5.78,0,0,1-3,.87c-1.87,0-2.66-1.23-2.66-2.92,0-2,.9-2.76,3-2.76h2.45v-1c0-1.08-.31-1.46-1.94-1.46a14.85,14.85,0,0,0-2.83.3L130,32.27a13.51,13.51,0,0,1,3.5-.47c3.21,0,4.15,1.09,4.15,3.55Zm-2.56-3.7h-1.88c-.84,0-1.07.22-1.07,1s.23,1,1,1a4.14,4.14,0,0,0,1.92-.5ZM143,42a12.53,12.53,0,0,1-3.52-.57l.35-1.87a11.94,11.94,0,0,0,3,.42c1.13,0,1.3-.24,1.3-1s-.12-.91-1.78-1.29c-2.49-.58-2.79-1.19-2.79-3.08s.9-2.84,3.82-2.84a13.48,13.48,0,0,1,3.06.35l-.26,2a18.71,18.71,0,0,0-2.8-.28c-1.11,0-1.3.24-1.3.84,0,.79.06.85,1.44,1.19,2.85.72,3.13,1.08,3.13,3.1S146.12,42,143,42Zm11.7-.21V35c0-.52-.23-.78-.82-.78a7.38,7.38,0,0,0-2.66.82v6.8h-2.55V28l2.55.38v4.34A9.4,9.4,0,0,1,155,31.8c1.7,0,2.31,1.15,2.31,2.9v7.1Zm4.71-11.18v-2.4H162v2.4Zm0,11.18V32H162v9.8Zm4.6-9.72c0-2.45,1.48-3.88,5-3.88a16.63,16.63,0,0,1,3.8.44l-.3,2.2a21.49,21.49,0,0,0-3.41-.34c-1.83,0-2.41.6-2.41,2v5.15c0,1.43.58,2,2.41,2a21.49,21.49,0,0,0,3.41-.34l.3,2.19A16.62,16.62,0,0,1,169,42c-3.48,0-5-1.43-5-3.89ZM178.45,42C175,42,174,40.15,174,38.14V35.67c0-2,.94-3.87,4.44-3.87s4.45,1.85,4.45,3.87v2.47C182.9,40.15,182,42,178.45,42Zm0-8.11c-1.36,0-1.88.58-1.88,1.69v2.63c0,1.11.52,1.69,1.88,1.69s1.89-.58,1.89-1.69V35.59C180.34,34.48,179.82,33.9,178.45,33.9Zm11.65.16a19.51,19.51,0,0,0-2.71,1.43V41.8h-2.55V32H187l.16,1.09a11.62,11.62,0,0,1,2.69-1.29Zm10.22,4.48c0,2.18-1,3.47-3.38,3.47a14.72,14.72,0,0,1-2.72-.29v4l-2.56.38V32h2l.25.83a5.54,5.54,0,0,1,3.22-1c2.06,0,3.15,1.17,3.15,3.4Zm-6.1,1.11a11.85,11.85,0,0,0,2.26.26c.92,0,1.28-.42,1.28-1.31V35.14c0-.8-.31-1.24-1.26-1.24a3.71,3.71,0,0,0-2.28.88Z"/></svg>
