<svg width="735" height="86" viewBox="0 0 735 86" fill="none" xmlns="http://www.w3.org/2000/svg">
<g clip-path="url(#clip0_54_72)">
<rect width="735" height="44" rx="2" fill="#DEECF9"/>
<g clip-path="url(#clip1_54_72)">
<path d="M336.974 13.5918C337.093 13.2381 337.425 13 337.798 13H343.472L337.598 30.4037C337.479 30.7574 337.147 30.9955 336.774 30.9955H332.312C331.717 30.9955 331.297 30.4112 331.488 29.8473L336.974 13.5918Z" fill="url(#paint0_linear_54_72)"/>
<path d="M345.999 25.0183H337.132C336.753 25.0183 336.575 25.4879 336.859 25.7395L342.55 30.7773C342.709 30.9181 342.915 30.9959 343.127 30.9959H348.196L345.999 25.0183Z" fill="#0078D4"/>
<g opacity="0.5">
<path d="M344.152 30.9959H348.196L345.999 25.0183H342.421L344.198 30.3095C344.279 30.5493 344.253 30.7926 344.152 30.9959Z" fill="black"/>
<path d="M340.922 20.5566L343.472 13H338.368C338.393 13.0464 338.415 13.0954 338.432 13.1469L340.922 20.5566Z" fill="black"/>
</g>
<g opacity="0.5">
<path d="M337.551 13.0336H337.579C337.751 13.0336 337.903 13.1433 337.958 13.3061L340.657 21.3398L341.186 19.7734L338.921 13.0336H343.461L343.472 13H337.551V13.0336Z" fill="black" fill-opacity="0.5"/>
<path d="M343.247 30.9959L348.196 30.9959L344.688 30.9959C344.767 30.7317 344.769 30.4394 344.672 30.1503L342.948 25.0183H341.893L343.724 30.4688C343.811 30.7278 343.619 30.9959 343.345 30.9959H343.247Z" fill="black" fill-opacity="0.5"/>
</g>
<path d="M345.021 13.5921C344.902 13.2385 344.57 13.0004 344.197 13.0004H337.849H337.877C338.263 13.0004 338.606 13.2466 338.73 13.6124L344.196 29.8084C344.393 30.3916 343.959 30.9959 343.344 30.9959H343.247H349.683C350.279 30.9959 350.698 30.4116 350.508 29.8477L345.021 13.5921Z" fill="url(#paint1_linear_54_72)"/>
</g>
<path d="M375.749 18.1973L372.229 28H370.41L366.951 18.1973H368.729L371.148 25.6348C371.226 25.8717 371.285 26.1475 371.326 26.4619H371.354C371.385 26.2021 371.451 25.9219 371.552 25.6211L374.026 18.1973H375.749ZM381.895 24.9307H377.123C377.141 25.5778 377.34 26.0768 377.718 26.4277C378.101 26.7786 378.625 26.9541 379.29 26.9541C380.037 26.9541 380.723 26.7308 381.348 26.2842V27.5625C380.71 27.9635 379.867 28.1641 378.818 28.1641C377.788 28.1641 376.979 27.8473 376.392 27.2139C375.808 26.5758 375.517 25.6803 375.517 24.5273C375.517 23.4382 375.838 22.5518 376.48 21.8682C377.128 21.18 377.93 20.8359 378.887 20.8359C379.844 20.8359 380.584 21.1436 381.108 21.7588C381.632 22.374 381.895 23.2285 381.895 24.3223V24.9307ZM380.363 23.8096C380.359 23.2399 380.224 22.7979 379.96 22.4834C379.696 22.1644 379.331 22.0049 378.866 22.0049C378.41 22.0049 378.023 22.1712 377.704 22.5039C377.39 22.8366 377.196 23.2718 377.123 23.8096H380.363ZM387.466 22.5107C387.274 22.3604 386.999 22.2852 386.639 22.2852C386.169 22.2852 385.777 22.4971 385.463 22.9209C385.148 23.3447 384.991 23.9212 384.991 24.6504V28H383.405V21H384.991V22.4424H385.019C385.174 21.9502 385.41 21.5674 385.729 21.2939C386.053 21.016 386.413 20.877 386.81 20.877C387.097 20.877 387.315 20.9202 387.466 21.0068V22.5107ZM389.387 19.5303C389.127 19.5303 388.904 19.446 388.717 19.2773C388.535 19.1087 388.443 18.8945 388.443 18.6348C388.443 18.375 388.535 18.1585 388.717 17.9854C388.904 17.8122 389.127 17.7256 389.387 17.7256C389.656 17.7256 389.883 17.8122 390.07 17.9854C390.257 18.1585 390.351 18.375 390.351 18.6348C390.351 18.8809 390.257 19.0928 390.07 19.2705C389.883 19.4437 389.656 19.5303 389.387 19.5303ZM390.173 28H388.587V21H390.173V28ZM396.209 18.9287C395.995 18.8057 395.751 18.7441 395.478 18.7441C394.707 18.7441 394.322 19.1794 394.322 20.0498V21H395.949V22.2441H394.329V28H392.743V22.2441H391.547V21H392.743V19.8652C392.743 19.127 392.985 18.5459 393.468 18.1221C393.951 17.6937 394.555 17.4795 395.279 17.4795C395.671 17.4795 395.981 17.5228 396.209 17.6094V18.9287ZM397.877 19.5303C397.617 19.5303 397.394 19.446 397.207 19.2773C397.025 19.1087 396.934 18.8945 396.934 18.6348C396.934 18.375 397.025 18.1585 397.207 17.9854C397.394 17.8122 397.617 17.7256 397.877 17.7256C398.146 17.7256 398.374 17.8122 398.561 17.9854C398.747 18.1585 398.841 18.375 398.841 18.6348C398.841 18.8809 398.747 19.0928 398.561 19.2705C398.374 19.4437 398.146 19.5303 397.877 19.5303ZM398.663 28H397.077V21H398.663V28ZM406.668 24.9307H401.896C401.915 25.5778 402.113 26.0768 402.491 26.4277C402.874 26.7786 403.398 26.9541 404.063 26.9541C404.811 26.9541 405.497 26.7308 406.121 26.2842V27.5625C405.483 27.9635 404.64 28.1641 403.592 28.1641C402.562 28.1641 401.753 27.8473 401.165 27.2139C400.582 26.5758 400.29 25.6803 400.29 24.5273C400.29 23.4382 400.611 22.5518 401.254 21.8682C401.901 21.18 402.703 20.8359 403.66 20.8359C404.617 20.8359 405.358 21.1436 405.882 21.7588C406.406 22.374 406.668 23.2285 406.668 24.3223V24.9307ZM405.137 23.8096C405.132 23.2399 404.998 22.7979 404.733 22.4834C404.469 22.1644 404.104 22.0049 403.64 22.0049C403.184 22.0049 402.797 22.1712 402.478 22.5039C402.163 22.8366 401.969 23.2718 401.896 23.8096H405.137ZM414.543 28H412.957V26.8105H412.93C412.419 27.7129 411.633 28.1641 410.571 28.1641C409.71 28.1641 409.02 27.8519 408.5 27.2275C407.985 26.5986 407.728 25.7441 407.728 24.6641C407.728 23.5065 408.012 22.5791 408.582 21.8818C409.156 21.1846 409.92 20.8359 410.872 20.8359C411.815 20.8359 412.501 21.2142 412.93 21.9707H412.957V17.6367H414.543V28ZM412.978 24.8008V23.8848C412.978 23.388 412.816 22.9665 412.492 22.6201C412.169 22.2738 411.756 22.1006 411.255 22.1006C410.662 22.1006 410.195 22.3216 409.854 22.7637C409.516 23.2057 409.348 23.8187 409.348 24.6025C409.348 25.3135 409.509 25.8763 409.833 26.291C410.161 26.7012 410.601 26.9062 411.152 26.9062C411.695 26.9062 412.134 26.708 412.472 26.3115C412.809 25.9105 412.978 25.4069 412.978 24.8008Z" fill="#0078D4"/>
<rect width="735" height="42" transform="translate(0 44)" fill="#EFF6FC"/>
<path d="M110.75 70H109.69V63.8936C109.69 63.4111 109.72 62.8208 109.779 62.1226H109.753C109.652 62.533 109.561 62.8271 109.48 63.0049L106.37 70H105.85L102.746 63.0557C102.657 62.8525 102.566 62.5415 102.473 62.1226H102.447C102.481 62.4865 102.498 63.0811 102.498 63.9062V70H101.47V60.8975H102.879L105.672 67.2451C105.888 67.7318 106.027 68.0957 106.091 68.3369H106.129C106.311 67.8376 106.457 67.4652 106.567 67.2197L109.417 60.8975H110.75V70ZM115.727 70.1523C114.766 70.1523 113.998 69.8498 113.422 69.2446C112.851 68.6353 112.565 67.8291 112.565 66.8262C112.565 65.7344 112.864 64.8817 113.46 64.2681C114.057 63.6545 114.863 63.3477 115.879 63.3477C116.848 63.3477 117.603 63.646 118.145 64.2427C118.691 64.8394 118.964 65.6667 118.964 66.7246C118.964 67.7614 118.67 68.5929 118.082 69.2192C117.498 69.8413 116.713 70.1523 115.727 70.1523ZM115.803 64.2236C115.134 64.2236 114.605 64.4521 114.216 64.9092C113.826 65.362 113.632 65.9883 113.632 66.7881C113.632 67.5583 113.829 68.1655 114.222 68.6099C114.616 69.0542 115.143 69.2764 115.803 69.2764C116.476 69.2764 116.992 69.0584 117.352 68.6226C117.715 68.1867 117.897 67.5667 117.897 66.7627C117.897 65.9502 117.715 65.3239 117.352 64.8838C116.992 64.4437 116.476 64.2236 115.803 64.2236ZM126.175 70H125.134V68.8955H125.108C124.626 69.7334 123.881 70.1523 122.874 70.1523C122.057 70.1523 121.403 69.8625 120.913 69.2827C120.426 68.6987 120.183 67.9053 120.183 66.9023C120.183 65.8275 120.453 64.9663 120.995 64.3188C121.537 63.6714 122.258 63.3477 123.16 63.3477C124.053 63.3477 124.702 63.6989 125.108 64.4014H125.134V60.377H126.175V70ZM125.134 67.061V66.1025C125.134 65.5778 124.96 65.1335 124.613 64.7695C124.266 64.4056 123.826 64.2236 123.293 64.2236C122.658 64.2236 122.159 64.4564 121.795 64.9219C121.431 65.3874 121.249 66.0306 121.249 66.8516C121.249 67.6006 121.423 68.193 121.77 68.6289C122.121 69.0605 122.59 69.2764 123.179 69.2764C123.758 69.2764 124.228 69.0669 124.588 68.6479C124.952 68.229 125.134 67.7 125.134 67.061ZM133.538 70H132.497V68.9717H132.472C132.04 69.7588 131.371 70.1523 130.466 70.1523C128.917 70.1523 128.143 69.2298 128.143 67.3848V63.5H129.177V67.2197C129.177 68.5908 129.702 69.2764 130.751 69.2764C131.259 69.2764 131.676 69.0902 132.002 68.7178C132.332 68.3411 132.497 67.8503 132.497 67.2451V63.5H133.538V70ZM136.687 70H135.646V60.377H136.687V70ZM144.018 67.0103H139.429C139.446 67.7339 139.64 68.2925 140.013 68.686C140.385 69.0796 140.897 69.2764 141.549 69.2764C142.281 69.2764 142.954 69.0352 143.567 68.5527V69.5303C142.996 69.945 142.241 70.1523 141.301 70.1523C140.383 70.1523 139.661 69.8582 139.137 69.27C138.612 68.6776 138.35 67.846 138.35 66.7754C138.35 65.764 138.635 64.9409 139.207 64.3062C139.782 63.6672 140.495 63.3477 141.346 63.3477C142.196 63.3477 142.854 63.6227 143.32 64.1729C143.785 64.723 144.018 65.4868 144.018 66.4644V67.0103ZM142.952 66.1279C142.947 65.527 142.801 65.0594 142.514 64.7251C142.23 64.3908 141.834 64.2236 141.327 64.2236C140.836 64.2236 140.419 64.3993 140.076 64.7505C139.733 65.1017 139.522 65.5609 139.441 66.1279H142.952ZM145.205 69.7651V68.6479C145.772 69.0669 146.396 69.2764 147.078 69.2764C147.992 69.2764 148.449 68.9717 148.449 68.3623C148.449 68.1888 148.409 68.0428 148.328 67.9243C148.252 67.8016 148.146 67.6937 148.011 67.6006C147.88 67.5075 147.723 67.425 147.541 67.353C147.363 67.2769 147.171 67.1986 146.963 67.1182C146.676 67.0039 146.422 66.8896 146.202 66.7754C145.986 66.6569 145.804 66.5257 145.656 66.3818C145.512 66.2337 145.402 66.0666 145.326 65.8804C145.254 65.6942 145.218 65.4762 145.218 65.2266C145.218 64.9219 145.288 64.6532 145.427 64.4204C145.567 64.1834 145.753 63.9867 145.986 63.8301C146.219 63.6693 146.483 63.5487 146.779 63.4683C147.08 63.3879 147.389 63.3477 147.706 63.3477C148.269 63.3477 148.772 63.445 149.217 63.6396V64.6934C148.739 64.3802 148.188 64.2236 147.566 64.2236C147.372 64.2236 147.196 64.2469 147.04 64.2935C146.883 64.3358 146.748 64.3971 146.633 64.4775C146.523 64.5579 146.437 64.6553 146.373 64.7695C146.314 64.8796 146.284 65.0023 146.284 65.1377C146.284 65.307 146.314 65.4487 146.373 65.563C146.437 65.6772 146.528 65.7788 146.646 65.8677C146.764 65.9565 146.908 66.0369 147.078 66.1089C147.247 66.1808 147.439 66.2591 147.655 66.3438C147.943 66.4538 148.201 66.568 148.43 66.6865C148.658 66.8008 148.853 66.932 149.014 67.0801C149.174 67.224 149.297 67.3911 149.382 67.5815C149.471 67.772 149.515 67.9984 149.515 68.2607C149.515 68.5824 149.443 68.8617 149.299 69.0986C149.16 69.3356 148.971 69.5324 148.734 69.689C148.497 69.8455 148.224 69.9619 147.916 70.0381C147.607 70.1143 147.283 70.1523 146.944 70.1523C146.276 70.1523 145.696 70.0233 145.205 69.7651ZM159.798 63.5L157.208 70H156.187L153.724 63.5H154.866L156.517 68.2227C156.639 68.5697 156.715 68.8722 156.745 69.1304H156.771C156.813 68.8045 156.881 68.5104 156.974 68.248L158.7 63.5H159.798ZM166.146 67.0103H161.557C161.574 67.7339 161.768 68.2925 162.141 68.686C162.513 69.0796 163.025 69.2764 163.677 69.2764C164.409 69.2764 165.082 69.0352 165.695 68.5527V69.5303C165.124 69.945 164.369 70.1523 163.429 70.1523C162.511 70.1523 161.789 69.8582 161.265 69.27C160.74 68.6776 160.478 67.846 160.478 66.7754C160.478 65.764 160.763 64.9409 161.334 64.3062C161.91 63.6672 162.623 63.3477 163.474 63.3477C164.324 63.3477 164.982 63.6227 165.448 64.1729C165.913 64.723 166.146 65.4868 166.146 66.4644V67.0103ZM165.08 66.1279C165.075 65.527 164.929 65.0594 164.642 64.7251C164.358 64.3908 163.962 64.2236 163.455 64.2236C162.964 64.2236 162.547 64.3993 162.204 64.7505C161.861 65.1017 161.65 65.5609 161.569 66.1279H165.08ZM171.116 64.5537C170.934 64.4141 170.672 64.3442 170.329 64.3442C169.885 64.3442 169.512 64.5537 169.212 64.9727C168.916 65.3916 168.768 65.9629 168.768 66.6865V70H167.727V63.5H168.768V64.8394H168.793C168.941 64.3823 169.167 64.0269 169.472 63.7729C169.777 63.5148 170.118 63.3857 170.494 63.3857C170.765 63.3857 170.972 63.4154 171.116 63.4746V64.5537ZM172.779 61.8496C172.593 61.8496 172.434 61.7861 172.303 61.6592C172.172 61.5322 172.106 61.3714 172.106 61.1768C172.106 60.9821 172.172 60.8213 172.303 60.6943C172.434 60.5632 172.593 60.4976 172.779 60.4976C172.97 60.4976 173.131 60.5632 173.262 60.6943C173.397 60.8213 173.465 60.9821 173.465 61.1768C173.465 61.363 173.397 61.5216 173.262 61.6528C173.131 61.784 172.97 61.8496 172.779 61.8496ZM173.287 70H172.246V63.5H173.287V70ZM178.606 61.291C178.403 61.1768 178.173 61.1196 177.915 61.1196C177.187 61.1196 176.823 61.5788 176.823 62.4971V63.5H178.346V64.3887H176.823V70H175.788V64.3887H174.677V63.5H175.788V62.4463C175.788 61.765 175.985 61.2275 176.378 60.834C176.772 60.4362 177.263 60.2373 177.851 60.2373C178.168 60.2373 178.42 60.2754 178.606 60.3516V61.291ZM180.003 61.8496C179.817 61.8496 179.658 61.7861 179.527 61.6592C179.396 61.5322 179.33 61.3714 179.33 61.1768C179.33 60.9821 179.396 60.8213 179.527 60.6943C179.658 60.5632 179.817 60.4976 180.003 60.4976C180.193 60.4976 180.354 60.5632 180.485 60.6943C180.621 60.8213 180.688 60.9821 180.688 61.1768C180.688 61.363 180.621 61.5216 180.485 61.6528C180.354 61.784 180.193 61.8496 180.003 61.8496ZM180.511 70H179.47V63.5H180.511V70ZM187.842 67.0103H183.253C183.27 67.7339 183.465 68.2925 183.837 68.686C184.209 69.0796 184.721 69.2764 185.373 69.2764C186.105 69.2764 186.778 69.0352 187.392 68.5527V69.5303C186.82 69.945 186.065 70.1523 185.125 70.1523C184.207 70.1523 183.486 69.8582 182.961 69.27C182.436 68.6776 182.174 67.846 182.174 66.7754C182.174 65.764 182.459 64.9409 183.031 64.3062C183.606 63.6672 184.319 63.3477 185.17 63.3477C186.021 63.3477 186.679 63.6227 187.144 64.1729C187.61 64.723 187.842 65.4868 187.842 66.4644V67.0103ZM186.776 66.1279C186.772 65.527 186.626 65.0594 186.338 64.7251C186.054 64.3908 185.659 64.2236 185.151 64.2236C184.66 64.2236 184.243 64.3993 183.9 64.7505C183.558 65.1017 183.346 65.5609 183.266 66.1279H186.776ZM194.971 70H193.93V68.8955H193.904C193.422 69.7334 192.677 70.1523 191.67 70.1523C190.853 70.1523 190.199 69.8625 189.708 69.2827C189.222 68.6987 188.979 67.9053 188.979 66.9023C188.979 65.8275 189.249 64.9663 189.791 64.3188C190.333 63.6714 191.054 63.3477 191.956 63.3477C192.848 63.3477 193.498 63.6989 193.904 64.4014H193.93V60.377H194.971V70ZM193.93 67.061V66.1025C193.93 65.5778 193.756 65.1335 193.409 64.7695C193.062 64.4056 192.622 64.2236 192.089 64.2236C191.454 64.2236 190.955 64.4564 190.591 64.9219C190.227 65.3874 190.045 66.0306 190.045 66.8516C190.045 67.6006 190.218 68.193 190.565 68.6289C190.917 69.0605 191.386 69.2764 191.975 69.2764C192.554 69.2764 193.024 69.0669 193.384 68.6479C193.748 68.229 193.93 67.7 193.93 67.061ZM201.712 69.0605H201.687V70H200.646V60.377H201.687V64.6426H201.712C202.224 63.7793 202.973 63.3477 203.959 63.3477C204.793 63.3477 205.444 63.6396 205.914 64.2236C206.388 64.8034 206.625 65.582 206.625 66.5596C206.625 67.6471 206.361 68.5189 205.832 69.1748C205.303 69.8265 204.579 70.1523 203.661 70.1523C202.802 70.1523 202.152 69.7884 201.712 69.0605ZM201.687 66.439V67.3467C201.687 67.8841 201.86 68.3411 202.207 68.7178C202.558 69.0902 203.003 69.2764 203.54 69.2764C204.171 69.2764 204.664 69.0352 205.019 68.5527C205.379 68.0703 205.559 67.3996 205.559 66.5405C205.559 65.8169 205.391 65.2498 205.057 64.8394C204.723 64.4289 204.27 64.2236 203.699 64.2236C203.094 64.2236 202.607 64.4352 202.239 64.8584C201.871 65.2773 201.687 65.8042 201.687 66.439ZM213.461 63.5L210.472 71.041C209.938 72.3867 209.189 73.0596 208.225 73.0596C207.954 73.0596 207.727 73.0321 207.545 72.9771V72.0439C207.77 72.1201 207.975 72.1582 208.161 72.1582C208.686 72.1582 209.079 71.8451 209.342 71.2188L209.862 69.9873L207.323 63.5H208.479L210.237 68.502C210.258 68.5654 210.302 68.7305 210.37 68.9971H210.408C210.429 68.8955 210.472 68.7347 210.535 68.5146L212.382 63.5H213.461ZM225.338 70H224.157L223.192 67.4482H219.333L218.425 70H217.238L220.729 60.8975H221.834L225.338 70ZM222.843 66.4897L221.415 62.6113C221.368 62.4844 221.322 62.2812 221.275 62.002H221.25C221.208 62.2601 221.159 62.4632 221.104 62.6113L219.688 66.4897H222.843ZM231.076 63.7983L227.229 69.1113H231.038V70H225.7V69.6763L229.546 64.3887H226.062V63.5H231.076V63.7983ZM237.678 70H236.637V68.9717H236.611C236.18 69.7588 235.511 70.1523 234.605 70.1523C233.057 70.1523 232.282 69.2298 232.282 67.3848V63.5H233.317V67.2197C233.317 68.5908 233.842 69.2764 234.891 69.2764C235.399 69.2764 235.816 69.0902 236.142 68.7178C236.472 68.3411 236.637 67.8503 236.637 67.2451V63.5H237.678V70ZM243.175 64.5537C242.993 64.4141 242.73 64.3442 242.388 64.3442C241.943 64.3442 241.571 64.5537 241.271 64.9727C240.974 65.3916 240.826 65.9629 240.826 66.6865V70H239.785V63.5H240.826V64.8394H240.852C241 64.3823 241.226 64.0269 241.531 63.7729C241.835 63.5148 242.176 63.3857 242.553 63.3857C242.824 63.3857 243.031 63.4154 243.175 63.4746V64.5537ZM249.529 67.0103H244.939C244.956 67.7339 245.151 68.2925 245.523 68.686C245.896 69.0796 246.408 69.2764 247.06 69.2764C247.792 69.2764 248.465 69.0352 249.078 68.5527V69.5303C248.507 69.945 247.751 70.1523 246.812 70.1523C245.894 70.1523 245.172 69.8582 244.647 69.27C244.123 68.6776 243.86 67.846 243.86 66.7754C243.86 65.764 244.146 64.9409 244.717 64.3062C245.293 63.6672 246.006 63.3477 246.856 63.3477C247.707 63.3477 248.365 63.6227 248.831 64.1729C249.296 64.723 249.529 65.4868 249.529 66.4644V67.0103ZM248.462 66.1279C248.458 65.527 248.312 65.0594 248.024 64.7251C247.741 64.3908 247.345 64.2236 246.837 64.2236C246.347 64.2236 245.93 64.3993 245.587 64.7505C245.244 65.1017 245.033 65.5609 244.952 66.1279H248.462ZM260.199 61.8623H257.571V70H256.505V61.8623H253.883V60.8975H260.199V61.8623ZM265.449 67.0103H260.859C260.876 67.7339 261.071 68.2925 261.443 68.686C261.816 69.0796 262.328 69.2764 262.979 69.2764C263.712 69.2764 264.384 69.0352 264.998 68.5527V69.5303C264.427 69.945 263.671 70.1523 262.732 70.1523C261.814 70.1523 261.092 69.8582 260.567 69.27C260.043 68.6776 259.78 67.846 259.78 66.7754C259.78 65.764 260.066 64.9409 260.637 64.3062C261.213 63.6672 261.926 63.3477 262.776 63.3477C263.627 63.3477 264.285 63.6227 264.75 64.1729C265.216 64.723 265.449 65.4868 265.449 66.4644V67.0103ZM264.382 66.1279C264.378 65.527 264.232 65.0594 263.944 64.7251C263.661 64.3908 263.265 64.2236 262.757 64.2236C262.266 64.2236 261.85 64.3993 261.507 64.7505C261.164 65.1017 260.952 65.5609 260.872 66.1279H264.382ZM270.419 64.5537C270.237 64.4141 269.975 64.3442 269.632 64.3442C269.188 64.3442 268.815 64.5537 268.515 64.9727C268.218 65.3916 268.07 65.9629 268.07 66.6865V70H267.029V63.5H268.07V64.8394H268.096C268.244 64.3823 268.47 64.0269 268.775 63.7729C269.08 63.5148 269.42 63.3857 269.797 63.3857C270.068 63.3857 270.275 63.4154 270.419 63.4746V64.5537ZM274.938 64.5537C274.757 64.4141 274.494 64.3442 274.151 64.3442C273.707 64.3442 273.335 64.5537 273.034 64.9727C272.738 65.3916 272.59 65.9629 272.59 66.6865V70H271.549V63.5H272.59V64.8394H272.615C272.763 64.3823 272.99 64.0269 273.294 63.7729C273.599 63.5148 273.94 63.3857 274.316 63.3857C274.587 63.3857 274.795 63.4154 274.938 63.4746V64.5537ZM280.721 70H279.68V68.9844H279.655C279.202 69.763 278.535 70.1523 277.655 70.1523C277.008 70.1523 276.5 69.981 276.132 69.6382C275.768 69.2954 275.586 68.8405 275.586 68.2734C275.586 67.0589 276.301 66.3522 277.731 66.1533L279.68 65.8804C279.68 64.7759 279.234 64.2236 278.341 64.2236C277.558 64.2236 276.851 64.4902 276.221 65.0234V63.957C276.86 63.5508 277.596 63.3477 278.43 63.3477C279.957 63.3477 280.721 64.1559 280.721 65.7725V70ZM279.68 66.7119L278.112 66.9277C277.63 66.9954 277.266 67.116 277.021 67.2896C276.775 67.4588 276.652 67.7614 276.652 68.1973C276.652 68.5146 276.764 68.7749 276.989 68.978C277.217 69.1769 277.52 69.2764 277.896 69.2764C278.413 69.2764 278.838 69.0965 279.172 68.7368C279.511 68.3729 279.68 67.9137 279.68 67.3594V66.7119ZM285.895 61.291C285.691 61.1768 285.461 61.1196 285.203 61.1196C284.475 61.1196 284.111 61.5788 284.111 62.4971V63.5H285.634V64.3887H284.111V70H283.076V64.3887H281.965V63.5H283.076V62.4463C283.076 61.765 283.273 61.2275 283.667 60.834C284.06 60.4362 284.551 60.2373 285.139 60.2373C285.457 60.2373 285.708 60.2754 285.895 60.3516V61.291ZM289.475 70.1523C288.514 70.1523 287.746 69.8498 287.17 69.2446C286.599 68.6353 286.313 67.8291 286.313 66.8262C286.313 65.7344 286.612 64.8817 287.208 64.2681C287.805 63.6545 288.611 63.3477 289.627 63.3477C290.596 63.3477 291.351 63.646 291.893 64.2427C292.439 64.8394 292.712 65.6667 292.712 66.7246C292.712 67.7614 292.418 68.5929 291.83 69.2192C291.246 69.8413 290.461 70.1523 289.475 70.1523ZM289.551 64.2236C288.882 64.2236 288.353 64.4521 287.964 64.9092C287.575 65.362 287.38 65.9883 287.38 66.7881C287.38 67.5583 287.577 68.1655 287.97 68.6099C288.364 69.0542 288.891 69.2764 289.551 69.2764C290.224 69.2764 290.74 69.0584 291.1 68.6226C291.464 68.1867 291.646 67.5667 291.646 66.7627C291.646 65.9502 291.464 65.3239 291.1 64.8838C290.74 64.4437 290.224 64.2236 289.551 64.2236ZM297.765 64.5537C297.583 64.4141 297.32 64.3442 296.978 64.3442C296.533 64.3442 296.161 64.5537 295.86 64.9727C295.564 65.3916 295.416 65.9629 295.416 66.6865V70H294.375V63.5H295.416V64.8394H295.441C295.59 64.3823 295.816 64.0269 296.121 63.7729C296.425 63.5148 296.766 63.3857 297.143 63.3857C297.413 63.3857 297.621 63.4154 297.765 63.4746V64.5537ZM308.124 70H307.083V66.2676C307.083 65.5482 306.971 65.0277 306.747 64.7061C306.527 64.3844 306.154 64.2236 305.629 64.2236C305.185 64.2236 304.806 64.4268 304.493 64.833C304.184 65.2393 304.03 65.7259 304.03 66.293V70H302.989V66.1406C302.989 64.8626 302.496 64.2236 301.51 64.2236C301.053 64.2236 300.676 64.4162 300.38 64.8013C300.084 65.1821 299.936 65.6794 299.936 66.293V70H298.895V63.5H299.936V64.5283H299.961C300.422 63.7412 301.095 63.3477 301.979 63.3477C302.424 63.3477 302.811 63.4725 303.141 63.7222C303.471 63.9676 303.698 64.2913 303.82 64.6934C304.303 63.7962 305.022 63.3477 305.979 63.3477C307.409 63.3477 308.124 64.23 308.124 65.9946V70ZM316.674 69.9365C316.429 70.0719 316.105 70.1396 315.703 70.1396C314.565 70.1396 313.996 69.5049 313.996 68.2354V64.3887H312.878V63.5H313.996V61.9131L315.037 61.5767V63.5H316.674V64.3887H315.037V68.0513C315.037 68.4871 315.111 68.7982 315.259 68.9844C315.407 69.1706 315.652 69.2637 315.995 69.2637C316.257 69.2637 316.484 69.1917 316.674 69.0479V69.9365ZM323.289 67.0103H318.699C318.716 67.7339 318.911 68.2925 319.283 68.686C319.656 69.0796 320.168 69.2764 320.819 69.2764C321.551 69.2764 322.224 69.0352 322.838 68.5527V69.5303C322.267 69.945 321.511 70.1523 320.572 70.1523C319.653 70.1523 318.932 69.8582 318.407 69.27C317.882 68.6776 317.62 67.846 317.62 66.7754C317.62 65.764 317.906 64.9409 318.477 64.3062C319.053 63.6672 319.766 63.3477 320.616 63.3477C321.467 63.3477 322.125 63.6227 322.59 64.1729C323.056 64.723 323.289 65.4868 323.289 66.4644V67.0103ZM322.222 66.1279C322.218 65.527 322.072 65.0594 321.784 64.7251C321.501 64.3908 321.105 64.2236 320.597 64.2236C320.106 64.2236 319.689 64.3993 319.347 64.7505C319.004 65.1017 318.792 65.5609 318.712 66.1279H322.222ZM329.522 70H328.481V68.9844H328.456C328.003 69.763 327.336 70.1523 326.456 70.1523C325.809 70.1523 325.301 69.981 324.933 69.6382C324.569 69.2954 324.387 68.8405 324.387 68.2734C324.387 67.0589 325.102 66.3522 326.532 66.1533L328.481 65.8804C328.481 64.7759 328.035 64.2236 327.142 64.2236C326.359 64.2236 325.652 64.4902 325.021 65.0234V63.957C325.66 63.5508 326.397 63.3477 327.23 63.3477C328.758 63.3477 329.522 64.1559 329.522 65.7725V70ZM328.481 66.7119L326.913 66.9277C326.431 66.9954 326.067 67.116 325.821 67.2896C325.576 67.4588 325.453 67.7614 325.453 68.1973C325.453 68.5146 325.565 68.7749 325.79 68.978C326.018 69.1769 326.321 69.2764 326.697 69.2764C327.214 69.2764 327.639 69.0965 327.973 68.7368C328.312 68.3729 328.481 67.9137 328.481 67.3594V66.7119ZM340.713 70H339.672V66.2676C339.672 65.5482 339.56 65.0277 339.335 64.7061C339.115 64.3844 338.743 64.2236 338.218 64.2236C337.774 64.2236 337.395 64.4268 337.082 64.833C336.773 65.2393 336.619 65.7259 336.619 66.293V70H335.578V66.1406C335.578 64.8626 335.085 64.2236 334.099 64.2236C333.642 64.2236 333.265 64.4162 332.969 64.8013C332.673 65.1821 332.524 65.6794 332.524 66.293V70H331.483V63.5H332.524V64.5283H332.55C333.011 63.7412 333.684 63.3477 334.568 63.3477C335.013 63.3477 335.4 63.4725 335.73 63.7222C336.06 63.9676 336.286 64.2913 336.409 64.6934C336.892 63.7962 337.611 63.3477 338.567 63.3477C339.998 63.3477 340.713 64.23 340.713 65.9946V70ZM349.263 69.9365C349.018 70.0719 348.694 70.1396 348.292 70.1396C347.154 70.1396 346.584 69.5049 346.584 68.2354V64.3887H345.467V63.5H346.584V61.9131L347.625 61.5767V63.5H349.263V64.3887H347.625V68.0513C347.625 68.4871 347.7 68.7982 347.848 68.9844C347.996 69.1706 348.241 69.2637 348.584 69.2637C348.846 69.2637 349.073 69.1917 349.263 69.0479V69.9365ZM353.37 70.1523C352.41 70.1523 351.641 69.8498 351.066 69.2446C350.495 68.6353 350.209 67.8291 350.209 66.8262C350.209 65.7344 350.507 64.8817 351.104 64.2681C351.701 63.6545 352.507 63.3477 353.522 63.3477C354.492 63.3477 355.247 63.646 355.789 64.2427C356.334 64.8394 356.607 65.6667 356.607 66.7246C356.607 67.7614 356.313 68.5929 355.725 69.2192C355.141 69.8413 354.356 70.1523 353.37 70.1523ZM353.446 64.2236C352.778 64.2236 352.249 64.4521 351.859 64.9092C351.47 65.362 351.275 65.9883 351.275 66.7881C351.275 67.5583 351.472 68.1655 351.866 68.6099C352.259 69.0542 352.786 69.2764 353.446 69.2764C354.119 69.2764 354.635 69.0584 354.995 68.6226C355.359 68.1867 355.541 67.5667 355.541 66.7627C355.541 65.9502 355.359 65.3239 354.995 64.8838C354.635 64.4437 354.119 64.2236 353.446 64.2236ZM367.233 70H366.192V66.2549C366.192 64.9007 365.689 64.2236 364.682 64.2236C364.174 64.2236 363.746 64.4204 363.399 64.814C363.052 65.2033 362.879 65.7048 362.879 66.3184V70H361.838V60.377H362.879V64.5791H362.904C363.404 63.7581 364.115 63.3477 365.037 63.3477C366.501 63.3477 367.233 64.23 367.233 65.9946V70ZM373.854 70H372.813V68.9844H372.788C372.335 69.763 371.668 70.1523 370.788 70.1523C370.141 70.1523 369.633 69.981 369.265 69.6382C368.901 69.2954 368.719 68.8405 368.719 68.2734C368.719 67.0589 369.434 66.3522 370.864 66.1533L372.813 65.8804C372.813 64.7759 372.367 64.2236 371.474 64.2236C370.691 64.2236 369.984 64.4902 369.354 65.0234V63.957C369.993 63.5508 370.729 63.3477 371.562 63.3477C373.09 63.3477 373.854 64.1559 373.854 65.7725V70ZM372.813 66.7119L371.245 66.9277C370.763 66.9954 370.399 67.116 370.153 67.2896C369.908 67.4588 369.785 67.7614 369.785 68.1973C369.785 68.5146 369.897 68.7749 370.122 68.978C370.35 69.1769 370.653 69.2764 371.029 69.2764C371.546 69.2764 371.971 69.0965 372.305 68.7368C372.644 68.3729 372.813 67.9137 372.813 67.3594V66.7119ZM380.925 63.5L378.335 70H377.313L374.851 63.5H375.993L377.644 68.2227C377.766 68.5697 377.842 68.8722 377.872 69.1304H377.897C377.94 68.8045 378.007 68.5104 378.101 68.248L379.827 63.5H380.925ZM387.273 67.0103H382.684C382.701 67.7339 382.895 68.2925 383.268 68.686C383.64 69.0796 384.152 69.2764 384.804 69.2764C385.536 69.2764 386.209 69.0352 386.822 68.5527V69.5303C386.251 69.945 385.496 70.1523 384.556 70.1523C383.638 70.1523 382.916 69.8582 382.392 69.27C381.867 68.6776 381.604 67.846 381.604 66.7754C381.604 65.764 381.89 64.9409 382.461 64.3062C383.037 63.6672 383.75 63.3477 384.601 63.3477C385.451 63.3477 386.109 63.6227 386.575 64.1729C387.04 64.723 387.273 65.4868 387.273 66.4644V67.0103ZM386.207 66.1279C386.202 65.527 386.056 65.0594 385.769 64.7251C385.485 64.3908 385.089 64.2236 384.582 64.2236C384.091 64.2236 383.674 64.3993 383.331 64.7505C382.988 65.1017 382.777 65.5609 382.696 66.1279H386.207ZM397.816 70H396.775V66.2549C396.775 64.9007 396.272 64.2236 395.265 64.2236C394.757 64.2236 394.329 64.4204 393.982 64.814C393.635 65.2033 393.462 65.7048 393.462 66.3184V70H392.421V60.377H393.462V64.5791H393.487C393.987 63.7581 394.698 63.3477 395.62 63.3477C397.084 63.3477 397.816 64.23 397.816 65.9946V70ZM400.317 61.8496C400.131 61.8496 399.972 61.7861 399.841 61.6592C399.71 61.5322 399.645 61.3714 399.645 61.1768C399.645 60.9821 399.71 60.8213 399.841 60.6943C399.972 60.5632 400.131 60.4976 400.317 60.4976C400.508 60.4976 400.669 60.5632 400.8 60.6943C400.935 60.8213 401.003 60.9821 401.003 61.1768C401.003 61.363 400.935 61.5216 400.8 61.6528C400.669 61.784 400.508 61.8496 400.317 61.8496ZM400.825 70H399.784V63.5H400.825V70ZM408.48 69.4795C408.48 71.8662 407.338 73.0596 405.053 73.0596C404.249 73.0596 403.546 72.9072 402.945 72.6025V71.5615C403.677 71.9678 404.376 72.1709 405.04 72.1709C406.64 72.1709 407.439 71.3203 407.439 69.6191V68.9082H407.414C406.919 69.7376 406.174 70.1523 405.18 70.1523C404.371 70.1523 403.72 69.8646 403.225 69.2891C402.734 68.7093 402.488 67.9328 402.488 66.9595C402.488 65.855 402.753 64.9769 403.282 64.3252C403.815 63.6735 404.543 63.3477 405.465 63.3477C406.341 63.3477 406.991 63.6989 407.414 64.4014H407.439V63.5H408.48V69.4795ZM407.439 67.061V66.1025C407.439 65.5863 407.264 65.144 406.913 64.7759C406.566 64.4077 406.132 64.2236 405.611 64.2236C404.968 64.2236 404.465 64.4585 404.101 64.9282C403.737 65.3937 403.555 66.0475 403.555 66.8896C403.555 67.6133 403.728 68.193 404.075 68.6289C404.426 69.0605 404.89 69.2764 405.465 69.2764C406.049 69.2764 406.523 69.069 406.887 68.6543C407.255 68.2396 407.439 67.7085 407.439 67.061ZM415.983 70H414.942V66.2549C414.942 64.9007 414.439 64.2236 413.432 64.2236C412.924 64.2236 412.496 64.4204 412.149 64.814C411.802 65.2033 411.629 65.7048 411.629 66.3184V70H410.588V60.377H411.629V64.5791H411.654C412.154 63.7581 412.865 63.3477 413.787 63.3477C415.251 63.3477 415.983 64.23 415.983 65.9946V70ZM427.066 72.9897H426.025V68.8828H426C425.547 69.7292 424.807 70.1523 423.778 70.1523C422.962 70.1523 422.306 69.8625 421.811 69.2827C421.32 68.6987 421.074 67.9053 421.074 66.9023C421.074 65.8232 421.345 64.9621 421.887 64.3188C422.428 63.6714 423.156 63.3477 424.07 63.3477C424.959 63.3477 425.602 63.6989 426 64.4014H426.025V63.5H427.066V72.9897ZM426.025 67.0737V66.1279C426.025 65.5947 425.85 65.144 425.499 64.7759C425.152 64.4077 424.709 64.2236 424.172 64.2236C423.546 64.2236 423.05 64.4564 422.687 64.9219C422.323 65.3831 422.141 66.0348 422.141 66.877C422.141 67.626 422.316 68.2142 422.667 68.6416C423.019 69.0648 423.472 69.2764 424.026 69.2764C424.635 69.2764 425.12 69.069 425.479 68.6543C425.843 68.2354 426.025 67.7085 426.025 67.0737ZM434.43 70H433.389V68.9717H433.363C432.932 69.7588 432.263 70.1523 431.357 70.1523C429.809 70.1523 429.034 69.2298 429.034 67.3848V63.5H430.069V67.2197C430.069 68.5908 430.594 69.2764 431.643 69.2764C432.151 69.2764 432.568 69.0902 432.894 68.7178C433.224 68.3411 433.389 67.8503 433.389 67.2451V63.5H434.43V70ZM441.19 70H440.149V68.9844H440.124C439.671 69.763 439.004 70.1523 438.124 70.1523C437.477 70.1523 436.969 69.981 436.601 69.6382C436.237 69.2954 436.055 68.8405 436.055 68.2734C436.055 67.0589 436.77 66.3522 438.2 66.1533L440.149 65.8804C440.149 64.7759 439.702 64.2236 438.81 64.2236C438.027 64.2236 437.32 64.4902 436.689 65.0234V63.957C437.328 63.5508 438.065 63.3477 438.898 63.3477C440.426 63.3477 441.19 64.1559 441.19 65.7725V70ZM440.149 66.7119L438.581 66.9277C438.099 66.9954 437.735 67.116 437.489 67.2896C437.244 67.4588 437.121 67.7614 437.121 68.1973C437.121 68.5146 437.233 68.7749 437.458 68.978C437.686 69.1769 437.989 69.2764 438.365 69.2764C438.882 69.2764 439.307 69.0965 439.641 68.7368C439.98 68.3729 440.149 67.9137 440.149 67.3594V66.7119ZM444.192 70H443.151V60.377H444.192V70ZM446.833 61.8496C446.647 61.8496 446.488 61.7861 446.357 61.6592C446.226 61.5322 446.16 61.3714 446.16 61.1768C446.16 60.9821 446.226 60.8213 446.357 60.6943C446.488 60.5632 446.647 60.4976 446.833 60.4976C447.023 60.4976 447.184 60.5632 447.315 60.6943C447.451 60.8213 447.519 60.9821 447.519 61.1768C447.519 61.363 447.451 61.5216 447.315 61.6528C447.184 61.784 447.023 61.8496 446.833 61.8496ZM447.341 70H446.3V63.5H447.341V70ZM452.463 69.9365C452.218 70.0719 451.894 70.1396 451.492 70.1396C450.354 70.1396 449.785 69.5049 449.785 68.2354V64.3887H448.667V63.5H449.785V61.9131L450.826 61.5767V63.5H452.463V64.3887H450.826V68.0513C450.826 68.4871 450.9 68.7982 451.048 68.9844C451.196 69.1706 451.441 69.2637 451.784 69.2637C452.047 69.2637 452.273 69.1917 452.463 69.0479V69.9365ZM459.027 63.5L456.037 71.041C455.504 72.3867 454.755 73.0596 453.79 73.0596C453.519 73.0596 453.293 73.0321 453.111 72.9771V72.0439C453.335 72.1201 453.54 72.1582 453.727 72.1582C454.251 72.1582 454.645 71.8451 454.907 71.2188L455.428 69.9873L452.889 63.5H454.044L455.802 68.502C455.823 68.5654 455.868 68.7305 455.936 68.9971H455.974C455.995 68.8955 456.037 68.7347 456.101 68.5146L457.948 63.5H459.027ZM461.103 68.5527L460.087 71.6758H459.344L460.087 68.5527H461.103ZM470.967 69.7017C470.467 70.0021 469.875 70.1523 469.189 70.1523C468.263 70.1523 467.514 69.8519 466.942 69.251C466.375 68.6458 466.092 67.863 466.092 66.9023C466.092 65.8317 466.399 64.9727 467.012 64.3252C467.626 63.6735 468.445 63.3477 469.469 63.3477C470.04 63.3477 470.544 63.4535 470.979 63.665V64.7314C470.497 64.3929 469.981 64.2236 469.431 64.2236C468.766 64.2236 468.22 64.4627 467.793 64.9409C467.37 65.4149 467.158 66.0391 467.158 66.8135C467.158 67.5752 467.357 68.1761 467.755 68.6162C468.157 69.0563 468.694 69.2764 469.367 69.2764C469.934 69.2764 470.467 69.0881 470.967 68.7114V69.7017ZM475.258 70.1523C474.297 70.1523 473.529 69.8498 472.954 69.2446C472.382 68.6353 472.097 67.8291 472.097 66.8262C472.097 65.7344 472.395 64.8817 472.992 64.2681C473.588 63.6545 474.395 63.3477 475.41 63.3477C476.379 63.3477 477.135 63.646 477.676 64.2427C478.222 64.8394 478.495 65.6667 478.495 66.7246C478.495 67.7614 478.201 68.5929 477.613 69.2192C477.029 69.8413 476.244 70.1523 475.258 70.1523ZM475.334 64.2236C474.665 64.2236 474.136 64.4521 473.747 64.9092C473.358 65.362 473.163 65.9883 473.163 66.7881C473.163 67.5583 473.36 68.1655 473.753 68.6099C474.147 69.0542 474.674 69.2764 475.334 69.2764C476.007 69.2764 476.523 69.0584 476.883 68.6226C477.247 68.1867 477.429 67.5667 477.429 66.7627C477.429 65.9502 477.247 65.3239 476.883 64.8838C476.523 64.4437 476.007 64.2236 475.334 64.2236ZM489.388 70H488.347V66.2676C488.347 65.5482 488.235 65.0277 488.01 64.7061C487.79 64.3844 487.418 64.2236 486.893 64.2236C486.449 64.2236 486.07 64.4268 485.757 64.833C485.448 65.2393 485.293 65.7259 485.293 66.293V70H484.252V66.1406C484.252 64.8626 483.759 64.2236 482.773 64.2236C482.316 64.2236 481.94 64.4162 481.644 64.8013C481.347 65.1821 481.199 65.6794 481.199 66.293V70H480.158V63.5H481.199V64.5283H481.225C481.686 63.7412 482.359 63.3477 483.243 63.3477C483.688 63.3477 484.075 63.4725 484.405 63.7222C484.735 63.9676 484.961 64.2913 485.084 64.6934C485.566 63.7962 486.286 63.3477 487.242 63.3477C488.673 63.3477 489.388 64.23 489.388 65.9946V70ZM492.422 69.0605H492.396V72.9897H491.355V63.5H492.396V64.6426H492.422C492.934 63.7793 493.683 63.3477 494.669 63.3477C495.507 63.3477 496.161 63.6396 496.63 64.2236C497.1 64.8034 497.335 65.582 497.335 66.5596C497.335 67.6471 497.07 68.5189 496.542 69.1748C496.013 69.8265 495.289 70.1523 494.371 70.1523C493.528 70.1523 492.879 69.7884 492.422 69.0605ZM492.396 66.439V67.3467C492.396 67.8841 492.57 68.3411 492.917 68.7178C493.268 69.0902 493.713 69.2764 494.25 69.2764C494.881 69.2764 495.374 69.0352 495.729 68.5527C496.089 68.0703 496.269 67.3996 496.269 66.5405C496.269 65.8169 496.101 65.2498 495.767 64.8394C495.433 64.4289 494.98 64.2236 494.409 64.2236C493.804 64.2236 493.317 64.4352 492.949 64.8584C492.581 65.2773 492.396 65.8042 492.396 66.439ZM503.651 70H502.61V68.9844H502.584C502.132 69.763 501.465 70.1523 500.585 70.1523C499.938 70.1523 499.43 69.981 499.062 69.6382C498.698 69.2954 498.516 68.8405 498.516 68.2734C498.516 67.0589 499.231 66.3522 500.661 66.1533L502.61 65.8804C502.61 64.7759 502.163 64.2236 501.271 64.2236C500.488 64.2236 499.781 64.4902 499.15 65.0234V63.957C499.789 63.5508 500.526 63.3477 501.359 63.3477C502.887 63.3477 503.651 64.1559 503.651 65.7725V70ZM502.61 66.7119L501.042 66.9277C500.56 66.9954 500.196 67.116 499.95 67.2896C499.705 67.4588 499.582 67.7614 499.582 68.1973C499.582 68.5146 499.694 68.7749 499.918 68.978C500.147 69.1769 500.45 69.2764 500.826 69.2764C501.342 69.2764 501.768 69.0965 502.102 68.7368C502.441 68.3729 502.61 67.9137 502.61 67.3594V66.7119ZM508.627 69.9365C508.382 70.0719 508.058 70.1396 507.656 70.1396C506.518 70.1396 505.949 69.5049 505.949 68.2354V64.3887H504.832V63.5H505.949V61.9131L506.99 61.5767V63.5H508.627V64.3887H506.99V68.0513C506.99 68.4871 507.064 68.7982 507.212 68.9844C507.36 69.1706 507.605 69.2637 507.948 69.2637C508.211 69.2637 508.437 69.1917 508.627 69.0479V69.9365ZM510.551 61.8496C510.365 61.8496 510.206 61.7861 510.075 61.6592C509.944 61.5322 509.878 61.3714 509.878 61.1768C509.878 60.9821 509.944 60.8213 510.075 60.6943C510.206 60.5632 510.365 60.4976 510.551 60.4976C510.741 60.4976 510.902 60.5632 511.033 60.6943C511.169 60.8213 511.236 60.9821 511.236 61.1768C511.236 61.363 511.169 61.5216 511.033 61.6528C510.902 61.784 510.741 61.8496 510.551 61.8496ZM511.059 70H510.018V63.5H511.059V70ZM514.232 69.0605H514.207V70H513.166V60.377H514.207V64.6426H514.232C514.744 63.7793 515.493 63.3477 516.479 63.3477C517.313 63.3477 517.965 63.6396 518.435 64.2236C518.909 64.8034 519.146 65.582 519.146 66.5596C519.146 67.6471 518.881 68.5189 518.352 69.1748C517.823 69.8265 517.099 70.1523 516.181 70.1523C515.322 70.1523 514.673 69.7884 514.232 69.0605ZM514.207 66.439V67.3467C514.207 67.8841 514.381 68.3411 514.728 68.7178C515.079 69.0902 515.523 69.2764 516.061 69.2764C516.691 69.2764 517.184 69.0352 517.54 68.5527C517.899 68.0703 518.079 67.3996 518.079 66.5405C518.079 65.8169 517.912 65.2498 517.578 64.8394C517.243 64.4289 516.791 64.2236 516.219 64.2236C515.614 64.2236 515.127 64.4352 514.759 64.8584C514.391 65.2773 514.207 65.8042 514.207 66.439ZM521.342 61.8496C521.156 61.8496 520.997 61.7861 520.866 61.6592C520.735 61.5322 520.669 61.3714 520.669 61.1768C520.669 60.9821 520.735 60.8213 520.866 60.6943C520.997 60.5632 521.156 60.4976 521.342 60.4976C521.532 60.4976 521.693 60.5632 521.824 60.6943C521.96 60.8213 522.027 60.9821 522.027 61.1768C522.027 61.363 521.96 61.5216 521.824 61.6528C521.693 61.784 521.532 61.8496 521.342 61.8496ZM521.85 70H520.809V63.5H521.85V70ZM524.998 70H523.957V60.377H524.998V70ZM527.639 61.8496C527.452 61.8496 527.294 61.7861 527.163 61.6592C527.031 61.5322 526.966 61.3714 526.966 61.1768C526.966 60.9821 527.031 60.8213 527.163 60.6943C527.294 60.5632 527.452 60.4976 527.639 60.4976C527.829 60.4976 527.99 60.5632 528.121 60.6943C528.257 60.8213 528.324 60.9821 528.324 61.1768C528.324 61.363 528.257 61.5216 528.121 61.6528C527.99 61.784 527.829 61.8496 527.639 61.8496ZM528.146 70H527.105V63.5H528.146V70ZM533.269 69.9365C533.024 70.0719 532.7 70.1396 532.298 70.1396C531.16 70.1396 530.59 69.5049 530.59 68.2354V64.3887H529.473V63.5H530.59V61.9131L531.631 61.5767V63.5H533.269V64.3887H531.631V68.0513C531.631 68.4871 531.705 68.7982 531.854 68.9844C532.002 69.1706 532.247 69.2637 532.59 69.2637C532.852 69.2637 533.079 69.1917 533.269 69.0479V69.9365ZM539.833 63.5L536.843 71.041C536.31 72.3867 535.561 73.0596 534.596 73.0596C534.325 73.0596 534.098 73.0321 533.917 72.9771V72.0439C534.141 72.1201 534.346 72.1582 534.532 72.1582C535.057 72.1582 535.451 71.8451 535.713 71.2188L536.233 69.9873L533.694 63.5H534.85L536.608 68.502C536.629 68.5654 536.674 68.7305 536.741 68.9971H536.779C536.8 68.8955 536.843 68.7347 536.906 68.5146L538.753 63.5H539.833ZM549.176 70H548.135V68.9844H548.11C547.657 69.763 546.991 70.1523 546.11 70.1523C545.463 70.1523 544.955 69.981 544.587 69.6382C544.223 69.2954 544.041 68.8405 544.041 68.2734C544.041 67.0589 544.756 66.3522 546.187 66.1533L548.135 65.8804C548.135 64.7759 547.689 64.2236 546.796 64.2236C546.013 64.2236 545.306 64.4902 544.676 65.0234V63.957C545.315 63.5508 546.051 63.3477 546.885 63.3477C548.412 63.3477 549.176 64.1559 549.176 65.7725V70ZM548.135 66.7119L546.567 66.9277C546.085 66.9954 545.721 67.116 545.476 67.2896C545.23 67.4588 545.107 67.7614 545.107 68.1973C545.107 68.5146 545.22 68.7749 545.444 68.978C545.672 69.1769 545.975 69.2764 546.352 69.2764C546.868 69.2764 547.293 69.0965 547.627 68.7368C547.966 68.3729 548.135 67.9137 548.135 67.3594V66.7119ZM556.533 70H555.492V66.293C555.492 64.9134 554.989 64.2236 553.981 64.2236C553.461 64.2236 553.029 64.4204 552.687 64.814C552.348 65.2033 552.179 65.6963 552.179 66.293V70H551.138V63.5H552.179V64.5791H552.204C552.695 63.7581 553.406 63.3477 554.337 63.3477C555.048 63.3477 555.592 63.5783 555.968 64.0396C556.345 64.4966 556.533 65.1589 556.533 66.0264V70ZM564.049 70H563.008V68.8955H562.982C562.5 69.7334 561.755 70.1523 560.748 70.1523C559.931 70.1523 559.278 69.8625 558.787 69.2827C558.3 68.6987 558.057 67.9053 558.057 66.9023C558.057 65.8275 558.327 64.9663 558.869 64.3188C559.411 63.6714 560.132 63.3477 561.034 63.3477C561.927 63.3477 562.576 63.6989 562.982 64.4014H563.008V60.377H564.049V70ZM563.008 67.061V66.1025C563.008 65.5778 562.834 65.1335 562.487 64.7695C562.14 64.4056 561.7 64.2236 561.167 64.2236C560.532 64.2236 560.033 64.4564 559.669 64.9219C559.305 65.3874 559.123 66.0306 559.123 66.8516C559.123 67.6006 559.297 68.193 559.644 68.6289C559.995 69.0605 560.465 69.2764 561.053 69.2764C561.632 69.2764 562.102 69.0669 562.462 68.6479C562.826 68.229 563.008 67.7 563.008 67.061ZM574.154 69.7017C573.655 70.0021 573.062 70.1523 572.377 70.1523C571.45 70.1523 570.701 69.8519 570.13 69.251C569.563 68.6458 569.279 67.863 569.279 66.9023C569.279 65.8317 569.586 64.9727 570.2 64.3252C570.813 63.6735 571.632 63.3477 572.656 63.3477C573.228 63.3477 573.731 63.4535 574.167 63.665V64.7314C573.685 64.3929 573.168 64.2236 572.618 64.2236C571.954 64.2236 571.408 64.4627 570.98 64.9409C570.557 65.4149 570.346 66.0391 570.346 66.8135C570.346 67.5752 570.545 68.1761 570.942 68.6162C571.344 69.0563 571.882 69.2764 572.555 69.2764C573.122 69.2764 573.655 69.0881 574.154 68.7114V69.7017ZM578.445 70.1523C577.485 70.1523 576.717 69.8498 576.141 69.2446C575.57 68.6353 575.284 67.8291 575.284 66.8262C575.284 65.7344 575.583 64.8817 576.179 64.2681C576.776 63.6545 577.582 63.3477 578.598 63.3477C579.567 63.3477 580.322 63.646 580.864 64.2427C581.41 64.8394 581.683 65.6667 581.683 66.7246C581.683 67.7614 581.389 68.5929 580.8 69.2192C580.216 69.8413 579.431 70.1523 578.445 70.1523ZM578.521 64.2236C577.853 64.2236 577.324 64.4521 576.935 64.9092C576.545 65.362 576.351 65.9883 576.351 66.7881C576.351 67.5583 576.547 68.1655 576.941 68.6099C577.334 69.0542 577.861 69.2764 578.521 69.2764C579.194 69.2764 579.711 69.0584 580.07 68.6226C580.434 68.1867 580.616 67.5667 580.616 66.7627C580.616 65.9502 580.434 65.3239 580.07 64.8838C579.711 64.4437 579.194 64.2236 578.521 64.2236ZM588.741 70H587.7V66.293C587.7 64.9134 587.197 64.2236 586.189 64.2236C585.669 64.2236 585.237 64.4204 584.895 64.814C584.556 65.2033 584.387 65.6963 584.387 66.293V70H583.346V63.5H584.387V64.5791H584.412C584.903 63.7581 585.614 63.3477 586.545 63.3477C587.256 63.3477 587.8 63.5783 588.176 64.0396C588.553 64.4966 588.741 65.1589 588.741 66.0264V70ZM590.315 69.7651V68.6479C590.882 69.0669 591.507 69.2764 592.188 69.2764C593.102 69.2764 593.559 68.9717 593.559 68.3623C593.559 68.1888 593.519 68.0428 593.438 67.9243C593.362 67.8016 593.257 67.6937 593.121 67.6006C592.99 67.5075 592.833 67.425 592.651 67.353C592.474 67.2769 592.281 67.1986 592.074 67.1182C591.786 67.0039 591.532 66.8896 591.312 66.7754C591.096 66.6569 590.914 66.5257 590.766 66.3818C590.622 66.2337 590.512 66.0666 590.436 65.8804C590.364 65.6942 590.328 65.4762 590.328 65.2266C590.328 64.9219 590.398 64.6532 590.538 64.4204C590.677 64.1834 590.863 63.9867 591.096 63.8301C591.329 63.6693 591.593 63.5487 591.89 63.4683C592.19 63.3879 592.499 63.3477 592.816 63.3477C593.379 63.3477 593.883 63.445 594.327 63.6396V64.6934C593.849 64.3802 593.299 64.2236 592.677 64.2236C592.482 64.2236 592.306 64.2469 592.15 64.2935C591.993 64.3358 591.858 64.3971 591.744 64.4775C591.634 64.5579 591.547 64.6553 591.483 64.7695C591.424 64.8796 591.395 65.0023 591.395 65.1377C591.395 65.307 591.424 65.4487 591.483 65.563C591.547 65.6772 591.638 65.7788 591.756 65.8677C591.875 65.9565 592.019 66.0369 592.188 66.1089C592.357 66.1808 592.55 66.2591 592.766 66.3438C593.053 66.4538 593.312 66.568 593.54 66.6865C593.769 66.8008 593.963 66.932 594.124 67.0801C594.285 67.224 594.408 67.3911 594.492 67.5815C594.581 67.772 594.625 67.9984 594.625 68.2607C594.625 68.5824 594.554 68.8617 594.41 69.0986C594.27 69.3356 594.082 69.5324 593.845 69.689C593.608 69.8455 593.335 69.9619 593.026 70.0381C592.717 70.1143 592.393 70.1523 592.055 70.1523C591.386 70.1523 590.806 70.0233 590.315 69.7651ZM596.765 61.8496C596.578 61.8496 596.42 61.7861 596.289 61.6592C596.157 61.5322 596.092 61.3714 596.092 61.1768C596.092 60.9821 596.157 60.8213 596.289 60.6943C596.42 60.5632 596.578 60.4976 596.765 60.4976C596.955 60.4976 597.116 60.5632 597.247 60.6943C597.382 60.8213 597.45 60.9821 597.45 61.1768C597.45 61.363 597.382 61.5216 597.247 61.6528C597.116 61.784 596.955 61.8496 596.765 61.8496ZM597.272 70H596.231V63.5H597.272V70ZM598.986 69.7651V68.6479C599.553 69.0669 600.178 69.2764 600.859 69.2764C601.773 69.2764 602.23 68.9717 602.23 68.3623C602.23 68.1888 602.19 68.0428 602.109 67.9243C602.033 67.8016 601.927 67.6937 601.792 67.6006C601.661 67.5075 601.504 67.425 601.322 67.353C601.145 67.2769 600.952 67.1986 600.745 67.1182C600.457 67.0039 600.203 66.8896 599.983 66.7754C599.767 66.6569 599.585 66.5257 599.437 66.3818C599.293 66.2337 599.183 66.0666 599.107 65.8804C599.035 65.6942 598.999 65.4762 598.999 65.2266C598.999 64.9219 599.069 64.6532 599.208 64.4204C599.348 64.1834 599.534 63.9867 599.767 63.8301C600 63.6693 600.264 63.5487 600.561 63.4683C600.861 63.3879 601.17 63.3477 601.487 63.3477C602.05 63.3477 602.554 63.445 602.998 63.6396V64.6934C602.52 64.3802 601.97 64.2236 601.348 64.2236C601.153 64.2236 600.977 64.2469 600.821 64.2935C600.664 64.3358 600.529 64.3971 600.415 64.4775C600.305 64.5579 600.218 64.6553 600.154 64.7695C600.095 64.8796 600.065 65.0023 600.065 65.1377C600.065 65.307 600.095 65.4487 600.154 65.563C600.218 65.6772 600.309 65.7788 600.427 65.8677C600.546 65.9565 600.69 66.0369 600.859 66.1089C601.028 66.1808 601.221 66.2591 601.437 66.3438C601.724 66.4538 601.982 66.568 602.211 66.6865C602.439 66.8008 602.634 66.932 602.795 67.0801C602.956 67.224 603.078 67.3911 603.163 67.5815C603.252 67.772 603.296 67.9984 603.296 68.2607C603.296 68.5824 603.224 68.8617 603.081 69.0986C602.941 69.3356 602.753 69.5324 602.516 69.689C602.279 69.8455 602.006 69.9619 601.697 70.0381C601.388 70.1143 601.064 70.1523 600.726 70.1523C600.057 70.1523 599.477 70.0233 598.986 69.7651ZM607.917 69.9365C607.672 70.0719 607.348 70.1396 606.946 70.1396C605.808 70.1396 605.239 69.5049 605.239 68.2354V64.3887H604.122V63.5H605.239V61.9131L606.28 61.5767V63.5H607.917V64.3887H606.28V68.0513C606.28 68.4871 606.354 68.7982 606.502 68.9844C606.65 69.1706 606.896 69.2637 607.238 69.2637C607.501 69.2637 607.727 69.1917 607.917 69.0479V69.9365ZM614.532 67.0103H609.942C609.959 67.7339 610.154 68.2925 610.526 68.686C610.899 69.0796 611.411 69.2764 612.062 69.2764C612.795 69.2764 613.467 69.0352 614.081 68.5527V69.5303C613.51 69.945 612.754 70.1523 611.815 70.1523C610.897 70.1523 610.175 69.8582 609.65 69.27C609.126 68.6776 608.863 67.846 608.863 66.7754C608.863 65.764 609.149 64.9409 609.72 64.3062C610.296 63.6672 611.009 63.3477 611.859 63.3477C612.71 63.3477 613.368 63.6227 613.833 64.1729C614.299 64.723 614.532 65.4868 614.532 66.4644V67.0103ZM613.465 66.1279C613.461 65.527 613.315 65.0594 613.027 64.7251C612.744 64.3908 612.348 64.2236 611.84 64.2236C611.349 64.2236 610.933 64.3993 610.59 64.7505C610.247 65.1017 610.035 65.5609 609.955 66.1279H613.465ZM621.508 70H620.467V66.293C620.467 64.9134 619.963 64.2236 618.956 64.2236C618.436 64.2236 618.004 64.4204 617.661 64.814C617.323 65.2033 617.153 65.6963 617.153 66.293V70H616.112V63.5H617.153V64.5791H617.179C617.67 63.7581 618.381 63.3477 619.312 63.3477C620.022 63.3477 620.566 63.5783 620.943 64.0396C621.319 64.4966 621.508 65.1589 621.508 66.0264V70ZM627.906 69.7017C627.407 70.0021 626.814 70.1523 626.129 70.1523C625.202 70.1523 624.453 69.8519 623.882 69.251C623.315 68.6458 623.031 67.863 623.031 66.9023C623.031 65.8317 623.338 64.9727 623.952 64.3252C624.565 63.6735 625.384 63.3477 626.408 63.3477C626.979 63.3477 627.483 63.4535 627.919 63.665V64.7314C627.437 64.3929 626.92 64.2236 626.37 64.2236C625.706 64.2236 625.16 64.4627 624.732 64.9409C624.309 65.4149 624.098 66.0391 624.098 66.8135C624.098 67.5752 624.297 68.1761 624.694 68.6162C625.096 69.0563 625.634 69.2764 626.307 69.2764C626.874 69.2764 627.407 69.0881 627.906 68.7114V69.7017ZM634.654 63.5L631.664 71.041C631.131 72.3867 630.382 73.0596 629.417 73.0596C629.146 73.0596 628.92 73.0321 628.738 72.9771V72.0439C628.962 72.1201 629.167 72.1582 629.354 72.1582C629.878 72.1582 630.272 71.8451 630.534 71.2188L631.055 69.9873L628.516 63.5H629.671L631.429 68.502C631.45 68.5654 631.495 68.7305 631.562 68.9971H631.601C631.622 68.8955 631.664 68.7347 631.728 68.5146L633.575 63.5H634.654Z" fill="#0078D4"/>
</g>
<rect x="0.5" y="0.5" width="734" height="85" rx="3.5" stroke="#0078D4"/>
<defs>
<linearGradient id="paint0_linear_54_72" x1="337.781" y1="13.6229" x2="331.912" y2="30.9618" gradientUnits="userSpaceOnUse">
<stop stop-color="#114A8B"/>
<stop offset="1" stop-color="#0669BC"/>
</linearGradient>
<linearGradient id="paint1_linear_54_72" x1="341.502" y1="13.6233" x2="347.945" y2="30.7877" gradientUnits="userSpaceOnUse">
<stop stop-color="#3CCBF4"/>
<stop offset="1" stop-color="#2892DF"/>
</linearGradient>
<clipPath id="clip0_54_72">
<rect width="735" height="86" rx="4" fill="white"/>
</clipPath>
<clipPath id="clip1_54_72">
<rect width="19.9961" height="19.9961" fill="white" transform="translate(331 12)"/>
</clipPath>
</defs>
</svg>
